<svg width="32" height="32" viewBox="0 0 32 32" fill="none" xmlns="http://www.w3.org/2000/svg">
<path fill-rule="evenodd" clip-rule="evenodd" d="M16 0C7.16344 0 0 7.16344 0 16C0 24.8366 7.16344 32 16 32C24.8366 32 32 24.8366 32 16C32 7.16344 24.8366 0 16 0ZM22.8917 12.4466H18.3722V11.1517H22.8917V12.4466ZM22.4934 13.5336C21.9495 13.293 21.3384 13.1722 20.6591 13.1722C19.5161 13.1722 18.5879 13.5296 17.8705 14.2394C17.155 14.9512 16.7968 15.9738 16.7968 17.3072C16.7968 18.7288 17.1921 19.7563 17.9879 20.3869C18.7796 21.0185 19.6957 21.3333 20.7343 21.3333C21.9916 21.3333 22.97 20.9591 23.6684 20.2117C24.1159 19.7405 24.3688 19.2762 24.424 18.8209H22.3418C22.2214 19.0466 22.0809 19.2228 21.9214 19.3505C21.6314 19.5851 21.2531 19.7029 20.7905 19.7029C20.351 19.7029 19.9767 19.6059 19.6656 19.4128C19.1519 19.103 18.8829 18.5615 18.8488 17.7903H24.5314C24.5404 17.1261 24.5183 16.6153 24.4631 16.2628C24.3688 15.66 24.1621 15.1293 23.84 14.672C23.4868 14.1533 23.0382 13.7731 22.4934 13.5336ZM12.5632 10.6667C13.8496 10.6855 14.7598 11.0547 15.2966 11.7754C15.6187 12.2179 15.7803 12.7465 15.7803 13.3633C15.7803 13.9978 15.6187 14.5096 15.2926 14.8957C15.11 15.1115 14.842 15.3095 14.4878 15.4877C15.0257 15.6817 15.4311 15.9876 15.707 16.4064C15.98 16.8241 16.1174 17.333 16.1174 17.9309C16.1174 18.5476 15.9609 19.101 15.6468 19.59C15.4481 19.9138 15.1993 20.187 14.9002 20.4087C14.5641 20.6631 14.1677 20.8364 13.7091 20.9314C13.2506 21.0255 12.7549 21.071 12.219 21.071H7.46667V10.6667H12.5632Z" fill="#999999"/>
<path fill-rule="evenodd" clip-rule="evenodd" d="M9.56885 12.4731H11.8647C12.3695 12.4731 12.7849 12.5276 13.112 12.6355C13.4893 12.7919 13.678 13.1117 13.678 13.5977C13.678 14.0333 13.5345 14.3382 13.2495 14.5105C12.9625 14.6827 12.5902 14.7688 12.1337 14.7688H9.56885V12.4731ZM19.4428 15.2717C19.7308 14.9787 20.1382 14.8322 20.66 14.8322C21.1417 14.8322 21.544 14.9698 21.8712 15.246C22.1943 15.5242 22.3769 15.9281 22.414 16.4626H18.8989C18.9732 15.9617 19.1548 15.5647 19.4428 15.2717ZM12.1658 16.4903H9.56885V19.2652H12.1297C12.5872 19.2652 12.9445 19.2038 13.1983 19.082C13.6609 18.8543 13.8917 18.4227 13.8917 17.7832C13.8917 17.2407 13.669 16.8695 13.2204 16.6666C12.9695 16.5537 12.6173 16.4943 12.1658 16.4903Z" fill="#999999"/>
</svg>
