<svg width="8" height="8" viewBox="0 0 8 8" fill="none" xmlns="http://www.w3.org/2000/svg">
<path fill-rule="evenodd" clip-rule="evenodd" d="M8 3.99894C7.96977 3.99964 7.93947 3.99997 7.9091 3.99997C7.93947 3.99997 7.96977 4.00031 8 4.00101V3.99894ZM4 0.0903123C4 2.24918 5.74957 3.99937 7.90797 3.99997C5.74993 4.00057 4.0006 5.75016 4 7.90851C3.9994 5.7498 2.24947 3.99997 0.0909093 3.99997C2.24984 3.99997 4 2.24956 4 0.0903123ZM4 0.0903123C4 0.0599225 3.99967 0.0296137 3.99897 -0.000610352H4.00103C4.00033 0.0296137 4 0.0599225 4 0.0903123ZM0.0897827 3.99997C0.0597747 3.99997 0.0298461 3.99961 0 3.99894V4.00101C0.0298461 4.00034 0.0597747 3.99997 0.0897827 3.99997ZM3.99897 8.00056H4.00103C4.00033 7.97032 4 7.94002 4 7.90964C4 7.94002 3.99967 7.97032 3.99897 8.00056Z" fill="#999999"/>
</svg>
